<svg width="50" height="50" viewBox="0 0 50 50" fill="none" xmlns="http://www.w3.org/2000/svg">
<path d="M7.29167 41.6666C6.45834 41.6666 5.72917 41.3541 5.10417 40.7291C4.47917 40.1041 4.16667 39.3749 4.16667 38.5416V11.4583C4.16667 10.6249 4.47917 9.89575 5.10417 9.27075C5.72917 8.64575 6.45834 8.33325 7.29167 8.33325H42.7083C43.5417 8.33325 44.2708 8.64575 44.8958 9.27075C45.5208 9.89575 45.8333 10.6249 45.8333 11.4583V38.5416C45.8333 39.3749 45.5208 40.1041 44.8958 40.7291C44.2708 41.3541 43.5417 41.6666 42.7083 41.6666H7.29167ZM25 25.9374L7.29167 14.3228V38.5416H42.7083V14.3228L25 25.9374ZM25 22.8124L42.5 11.4583H7.55209L25 22.8124ZM7.29167 14.3228V11.4583V38.5416V14.3228Z" fill="url(#paint0_linear_52_133)"/>
<defs>
<linearGradient id="paint0_linear_52_133" x1="25" y1="8.33325" x2="25" y2="41.6666" gradientUnits="userSpaceOnUse">
<stop stop-color="#7F07DA"/>
<stop offset="1" stop-color="#430474"/>
</linearGradient>
</defs>
</svg>
