<svg width="32" height="32" viewBox="0 0 32 32" fill="none" xmlns="http://www.w3.org/2000/svg">
<path d="M4.66669 26.6667C4.13335 26.6667 3.66669 26.4667 3.26669 26.0667C2.86669 25.6667 2.66669 25.2 2.66669 24.6667V7.33334C2.66669 6.80001 2.86669 6.33334 3.26669 5.93334C3.66669 5.53334 4.13335 5.33334 4.66669 5.33334H27.3334C27.8667 5.33334 28.3334 5.53334 28.7334 5.93334C29.1334 6.33334 29.3334 6.80001 29.3334 7.33334V24.6667C29.3334 25.2 29.1334 25.6667 28.7334 26.0667C28.3334 26.4667 27.8667 26.6667 27.3334 26.6667H4.66669ZM16 16.6L4.66669 9.16668V24.6667H27.3334V9.16668L16 16.6ZM16 14.6L27.2 7.33334H4.83335L16 14.6ZM4.66669 9.16668V7.33334V24.6667V9.16668Z" fill="white"/>
</svg>
