<svg width="50" height="50" viewBox="0 0 50 50" fill="none" xmlns="http://www.w3.org/2000/svg">
<path fill-rule="evenodd" clip-rule="evenodd" d="M18.0559 2.60419C13.3577 2.60419 9.54897 6.41287 9.54897 11.1111C9.54897 13.9785 10.9675 16.5145 13.1412 18.0556C10.9675 19.5967 9.54897 22.1327 9.54897 25C9.54897 27.8673 10.9675 30.4034 13.1412 31.9444C10.9675 33.4856 9.54897 36.0215 9.54897 38.889C9.54897 43.5871 13.3577 47.3959 18.0559 47.3959C22.7542 47.3959 26.5629 43.5871 26.5629 38.889V31.5884C28.029 32.7875 29.9029 33.5069 31.9448 33.5069C36.6431 33.5069 40.4517 29.6984 40.4517 25C40.4517 22.1327 39.0331 19.5967 36.8596 18.0556C39.0331 16.5145 40.4517 13.9785 40.4517 11.1111C40.4517 6.41287 36.6431 2.60419 31.9448 2.60419H18.0559ZM23.4379 30.3819H18.0559C15.0835 30.3819 12.674 27.9723 12.674 25C12.674 22.0277 15.0835 19.6181 18.0559 19.6181L23.4379 19.6181V25V30.3819ZM18.0559 16.4931H23.4379V5.72919H18.0559C15.0835 5.72919 12.674 8.13877 12.674 11.1111C12.674 14.0835 15.0835 16.4931 18.0559 16.4931ZM37.3267 11.1111C37.3267 14.0816 34.9202 16.49 31.9506 16.4931L29.2567 16.4931H26.5629V5.72919H31.9448C34.9171 5.72919 37.3267 8.13877 37.3267 11.1111ZM26.5629 24.9934C26.5665 22.0263 28.971 19.6216 31.9381 19.6181H31.95C34.92 19.6209 37.3267 22.0294 37.3267 25C37.3267 27.9723 34.9171 30.3819 31.9448 30.3819C28.9746 30.3819 26.5665 27.9759 26.5629 25.0067V24.9934ZM18.0559 33.5069C15.0835 33.5069 12.674 35.9165 12.674 38.889C12.674 41.8613 15.0835 44.2709 18.0559 44.2709C21.0283 44.2709 23.4379 41.8613 23.4379 38.889V33.5069H18.0559Z" fill="url(#paint0_linear_50_69)"/>
<defs>
<linearGradient id="paint0_linear_50_69" x1="25.0003" y1="2.60419" x2="25.0003" y2="47.3959" gradientUnits="userSpaceOnUse">
<stop stop-color="#7F07DA"/>
<stop offset="1" stop-color="#430474"/>
</linearGradient>
</defs>
</svg>
