<svg width="32" height="32" viewBox="0 0 32 32" fill="none" xmlns="http://www.w3.org/2000/svg">
<path d="M5.76 2.56C4.00031 2.56 2.56 4.00031 2.56 5.76V26.24C2.56 27.9997 4.00031 29.44 5.76 29.44H26.24C27.9997 29.44 29.44 27.9997 29.44 26.24V5.76C29.44 4.00031 27.9997 2.56 26.24 2.56H5.76ZM5.76 3.84H26.24C27.3078 3.84 28.16 4.69217 28.16 5.76V26.24C28.16 27.3078 27.3078 28.16 26.24 28.16H5.76C4.69217 28.16 3.84 27.3078 3.84 26.24V5.76C3.84 4.69217 4.69217 3.84 5.76 3.84ZM8.96 7.0475C8.25906 7.0475 7.6283 7.25701 7.16125 7.65C6.6942 8.04299 6.4075 8.63008 6.4075 9.25875C6.4075 10.4537 7.44402 11.3853 8.7625 11.4775L8.765 11.4787C8.82782 11.5002 8.89363 11.5116 8.96 11.5125C10.4147 11.5125 11.5125 10.4935 11.5125 9.25875C11.5124 9.24749 11.512 9.23623 11.5112 9.225C11.4461 8.00885 10.3619 7.0475 8.96 7.0475ZM8.96 8.3125C9.85103 8.3125 10.2029 8.71042 10.2412 9.275C10.2335 9.823 9.89446 10.2475 8.96 10.2475C8.07334 10.2475 7.6725 9.79342 7.6725 9.25875C7.6725 8.99141 7.77005 8.78995 7.975 8.6175C8.17995 8.44505 8.50894 8.3125 8.96 8.3125ZM7.04 12.16C6.87026 12.16 6.70749 12.2274 6.58747 12.3475C6.46745 12.4675 6.40001 12.6303 6.4 12.8V24.96C6.40001 25.1297 6.46745 25.2925 6.58747 25.4125C6.70749 25.5325 6.87026 25.6 7.04 25.6H10.88C11.0497 25.6 11.2125 25.5325 11.3325 25.4125C11.4525 25.2925 11.52 25.1297 11.52 24.96V21.2062V12.8C11.52 12.6303 11.4525 12.4675 11.3325 12.3475C11.2125 12.2274 11.0497 12.16 10.88 12.16H7.04ZM12.8 12.16C12.6303 12.16 12.4675 12.2274 12.3475 12.3475C12.2274 12.4675 12.16 12.6303 12.16 12.8V24.96C12.16 25.1297 12.2274 25.2925 12.3475 25.4125C12.4675 25.5325 12.6303 25.6 12.8 25.6H16.64C16.8097 25.6 16.9725 25.5325 17.0925 25.4125C17.2125 25.2925 17.28 25.1297 17.28 24.96V18.56C17.28 18.029 17.4249 17.5008 17.68 17.155C17.9351 16.8092 18.2569 16.6016 18.8687 16.6125C19.4996 16.6233 19.8336 16.8395 20.0862 17.1787C20.3389 17.518 20.48 18.0267 20.48 18.56V24.96C20.48 25.1297 20.5474 25.2925 20.6675 25.4125C20.7875 25.5325 20.9503 25.6 21.12 25.6H24.96C25.1297 25.6 25.2925 25.5325 25.4125 25.4125C25.5325 25.2925 25.6 25.1297 25.6 24.96V18.0875C25.6 16.1921 25.0386 14.6908 24.0762 13.675C23.1139 12.6592 21.7755 12.16 20.36 12.16C19.0147 12.16 17.9909 12.6111 17.28 13.0712V12.8C17.28 12.6303 17.2125 12.4675 17.0925 12.3475C16.9725 12.2274 16.8097 12.16 16.64 12.16H12.8ZM7.68 13.44H10.24V21.2062V24.32H7.68V13.44ZM13.44 13.44H16V14.4387C16 14.5729 16.0423 14.7037 16.1207 14.8126C16.1991 14.9215 16.3098 15.003 16.4371 15.0456C16.5643 15.0881 16.7018 15.0896 16.8299 15.0498C16.9581 15.01 17.0705 14.9309 17.1512 14.8237C17.1512 14.8237 18.1563 13.44 20.36 13.44C21.4821 13.44 22.4444 13.8128 23.1475 14.555C23.8506 15.2971 24.32 16.4405 24.32 18.0875V24.32H21.76V18.56C21.76 17.8133 21.5811 17.0413 21.1137 16.4137C20.6464 15.7861 19.8604 15.3492 18.8912 15.3325C17.9171 15.3152 17.1184 15.7613 16.65 16.3962C16.1816 17.0312 16 17.811 16 18.56V24.32H13.44V13.44Z" fill="white"/>
</svg>
