<svg width="50" height="50" viewBox="0 0 50 50" fill="none" xmlns="http://www.w3.org/2000/svg">
<path d="M25 36.125C10.7475 36.125 0 31.4625 0 25C0 18.5375 10.7475 13.75 25 13.75C39.2525 13.75 50 18.5375 50 25C50 31.4625 39.2525 36.125 25 36.125ZM25 17.415C12.8387 17.415 3.59375 21.4975 3.59375 25.0787C3.59375 28.66 12.8387 32.585 25 32.585C37.1613 32.585 46.4062 28.5025 46.4062 24.9213C46.4062 21.34 37.1613 17.415 25 17.415Z" fill="url(#paint0_radial_51_71)"/>
<path d="M15.5025 47.5C14.3387 47.5 13.2762 47.23 12.3425 46.6975C10.8175 45.8262 9.72374 44.2875 9.17749 42.245C7.74499 36.8925 10.0562 27.8925 15.0687 19.315C20.95 9.25872 28.7587 2.50372 34.4987 2.50372C35.6612 2.50372 36.7237 2.77372 37.6575 3.30622C39.18 4.17497 40.275 5.71247 40.8212 7.75372C42.255 13.1062 39.9425 22.1075 34.9275 30.685C29.0512 40.7425 21.2437 47.5 15.5025 47.5ZM34.4987 6.25372C30.8887 6.25372 23.9875 11.495 18.3062 21.2075C13.1525 30.0275 11.6412 37.3437 12.8012 41.275C13.115 42.3362 13.5575 43.0725 14.2025 43.44C17.1537 45.125 25.2137 39.8775 31.6912 28.7937C36.8475 19.9725 38.5162 12.8125 37.1987 8.72497C36.86 7.67372 36.4437 6.93122 35.8 6.56497C35.4337 6.35497 35.0075 6.25372 34.4987 6.25372Z" fill="url(#paint1_radial_51_71)"/>
<path d="M34.4987 47.4963C28.7525 47.495 20.945 40.74 15.0687 30.685C10.0562 22.1075 7.74499 13.1062 9.17749 7.755C9.72374 5.7125 10.8175 4.17375 12.3412 3.30375C13.2762 2.77 14.3387 2.5 15.5 2.5C21.2437 2.5 29.05 9.2575 34.9275 19.315C39.9412 27.8913 42.2525 36.8925 40.82 42.2463C40.2725 44.2875 39.1787 45.825 37.6575 46.6937C36.7237 47.2262 35.66 47.4963 34.4987 47.4963ZM15.5 6.25C14.9912 6.25 14.5662 6.3525 14.2 6.56C13.5562 6.9275 13.1075 7.66125 12.8 8.725C11.64 12.735 13.1512 19.9737 18.305 28.7938C23.9812 38.505 30.8837 43.7463 34.4975 43.7463C35.0075 43.7463 35.4325 43.6438 35.7987 43.435C36.4412 43.07 36.9025 42.34 37.1962 41.275C38.28 37.3425 36.845 30.025 31.69 21.2062C26.0137 11.4925 19.1125 6.25 15.5 6.25Z" fill="url(#paint2_radial_51_71)"/>
<path d="M29.375 25C29.375 27.4187 27.4187 29.375 25 29.375C22.5813 29.375 20.625 27.4187 20.625 25C20.625 22.5813 22.5813 20.625 25 20.625C27.4187 20.625 29.375 22.5813 29.375 25Z" fill="url(#paint3_radial_51_71)"/>
<path d="M25 30C22.2425 30 20 27.7575 20 25C20 22.2425 22.2425 20 25 20C27.7575 20 30 22.2425 30 25C30 27.7575 27.7575 30 25 30ZM25 21.25C22.9325 21.25 21.25 22.9325 21.25 25C21.25 27.0675 22.9325 28.75 25 28.75C27.0675 28.75 28.75 27.0675 28.75 25C28.75 22.9325 27.0675 21.25 25 21.25Z" fill="url(#paint4_radial_51_71)"/>
<path d="M25 35.085C11.6825 35.085 1.25 30.655 1.25 25C1.25 19.345 11.6825 14.915 25 14.915C38.3175 14.915 48.75 19.345 48.75 25C48.75 30.655 38.3175 35.085 25 35.085ZM25 16.165C12.8038 16.165 2.5 20.2112 2.5 25C2.5 29.7887 12.8038 33.835 25 33.835C37.1963 33.835 47.5 29.79 47.5 25C47.5 20.21 37.1963 16.165 25 16.165Z" fill="url(#paint5_radial_51_71)"/>
<path d="M15.5025 46.25C14.5588 46.25 13.705 46.035 12.9613 45.6112C11.7163 44.9 10.85 43.6587 10.3838 41.9212C9.03251 36.875 11.295 28.2487 16.1463 19.945C21.7238 10.4125 29.27 3.75372 34.4988 3.75372C35.4413 3.75372 36.2963 3.96872 37.0388 4.39247C38.2825 5.10247 39.1488 6.34247 39.615 8.07747C40.9663 13.1237 38.7038 21.75 33.85 30.055C28.2763 39.59 20.7325 46.25 15.5025 46.25ZM34.4988 5.00372C29.7688 5.00372 22.505 11.5525 17.2275 20.5762C12.6088 28.4825 10.3438 36.93 11.5925 41.5987C11.9688 43.0025 12.6375 43.9862 13.5825 44.5262C14.1338 44.84 14.7788 45 15.5013 45C20.2325 45 27.495 38.45 32.7688 29.4237C37.39 21.5162 39.6563 13.0675 38.405 8.40122C38.03 6.99997 37.3613 6.01622 36.4175 5.47872C35.8663 5.16372 35.2213 5.00372 34.4988 5.00372Z" fill="url(#paint6_radial_51_71)"/>
<path d="M34.4987 46.2463C29.265 46.245 21.7187 39.5875 16.1475 30.055C11.295 21.7513 9.03375 13.125 10.385 8.07875C10.85 6.34125 11.7162 5.1 12.9625 4.38875C13.705 3.965 14.5587 3.75 15.5 3.75C20.7312 3.75 28.2762 10.41 33.8487 19.945C38.7025 28.2475 40.9637 36.8737 39.6112 41.9225C39.1475 43.6587 38.2812 44.8988 37.0375 45.6075C36.295 46.0312 35.4412 46.2463 34.4987 46.2463ZM15.5 5C14.7787 5 14.1325 5.16 13.5812 5.47375C12.6362 6.01375 11.9675 6.9975 11.5912 8.40125C10.3425 13.0688 12.6075 21.5175 17.2262 29.4237C22.5 38.4463 29.765 44.995 34.4987 44.9963C35.2212 44.9963 35.8675 44.8363 36.4187 44.5213C37.3612 43.9837 38.03 43 38.405 41.5987C39.655 36.93 37.39 28.4813 32.77 20.5763C27.495 11.5513 20.2337 5 15.5 5Z" fill="url(#paint7_radial_51_71)"/>
<defs>
<radialGradient id="paint0_radial_51_71" cx="0" cy="0" r="1" gradientUnits="userSpaceOnUse" gradientTransform="translate(25 24.9375) rotate(90) scale(11.1875 25)">
<stop stop-color="#2483FF"/>
<stop offset="1" stop-color="#164F99"/>
</radialGradient>
<radialGradient id="paint1_radial_51_71" cx="0" cy="0" r="1" gradientUnits="userSpaceOnUse" gradientTransform="translate(24.9996 25.0019) rotate(90) scale(22.4981 16.2408)">
<stop stop-color="#2483FF"/>
<stop offset="1" stop-color="#164F99"/>
</radialGradient>
<radialGradient id="paint2_radial_51_71" cx="0" cy="0" r="1" gradientUnits="userSpaceOnUse" gradientTransform="translate(24.9987 24.9981) rotate(90) scale(22.4981 16.24)">
<stop stop-color="#2483FF"/>
<stop offset="1" stop-color="#164F99"/>
</radialGradient>
<radialGradient id="paint3_radial_51_71" cx="0" cy="0" r="1" gradientUnits="userSpaceOnUse" gradientTransform="translate(25 25) rotate(90) scale(4.375)">
<stop stop-color="#2483FF"/>
<stop offset="1" stop-color="#164F99"/>
</radialGradient>
<radialGradient id="paint4_radial_51_71" cx="0" cy="0" r="1" gradientUnits="userSpaceOnUse" gradientTransform="translate(25 25) rotate(90) scale(5)">
<stop stop-color="#2483FF"/>
<stop offset="1" stop-color="#164F99"/>
</radialGradient>
<radialGradient id="paint5_radial_51_71" cx="0" cy="0" r="1" gradientUnits="userSpaceOnUse" gradientTransform="translate(25 25) rotate(90) scale(10.085 23.75)">
<stop stop-color="#2483FF"/>
<stop offset="1" stop-color="#164F99"/>
</radialGradient>
<radialGradient id="paint6_radial_51_71" cx="0" cy="0" r="1" gradientUnits="userSpaceOnUse" gradientTransform="translate(24.9994 25.0019) rotate(90) scale(21.2481 15.0015)">
<stop stop-color="#2483FF"/>
<stop offset="1" stop-color="#164F99"/>
</radialGradient>
<radialGradient id="paint7_radial_51_71" cx="0" cy="0" r="1" gradientUnits="userSpaceOnUse" gradientTransform="translate(24.9984 24.9981) rotate(90) scale(21.2481 14.9995)">
<stop stop-color="#2483FF"/>
<stop offset="1" stop-color="#164F99"/>
</radialGradient>
</defs>
</svg>
