<svg width="32" height="32" viewBox="0 0 32 32" fill="none" xmlns="http://www.w3.org/2000/svg">
<path d="M16 1.28C7.87928 1.28 1.28003 7.87925 1.28003 16C1.28003 24.1207 7.87928 30.72 16 30.72C24.1208 30.72 30.72 24.1207 30.72 16C30.72 7.87925 24.1208 1.28 16 1.28ZM16 2.56C23.4287 2.56 29.44 8.5713 29.44 16C29.44 16.0457 29.4367 16.0907 29.4363 16.1362C29.0269 16.0985 28.554 16.0626 27.9525 16.0412C27.1021 16.0111 26.0303 16.0198 24.815 16.08C24.8601 15.7662 24.8917 15.4479 24.8925 15.1212C24.9545 13.9228 24.552 12.8016 23.8975 11.8112C24.0557 11.2649 24.2411 10.5697 24.2875 9.78125C24.3404 8.88251 24.2628 7.88593 23.5413 7.2125L23.3563 7.04H23.1038C21.3866 7.04 20.2112 7.75885 19.4925 8.32875C18.4548 7.92705 17.2878 7.68 16 7.68C14.7049 7.68 13.5268 7.9305 12.4463 8.33125C11.728 7.76108 10.5516 7.04 8.83253 7.04H8.58128L8.39628 7.21125C7.69344 7.86388 7.62869 8.83312 7.67253 9.7275C7.71119 10.5162 7.88594 11.2334 8.04128 11.8062C7.3757 12.8159 6.97628 13.9661 6.97628 15.1037C6.97628 15.4312 7.00673 15.7504 7.05128 16.065C5.89559 16.0114 4.86537 16.0011 4.04753 16.03C3.44612 16.0513 2.97311 16.0869 2.56378 16.125C2.5634 16.0832 2.56003 16.0419 2.56003 16C2.56003 8.5713 8.57133 2.56 16 2.56ZM9.21378 8.40375C10.505 8.52611 11.4765 9.1027 11.9263 9.5025L12.2263 9.7675L12.5963 9.61625C13.6084 9.19949 14.7373 8.96 16 8.96C17.2628 8.96 18.392 9.20069 19.3275 9.61L19.7025 9.775L20.0088 9.5025C20.4587 9.10256 21.4318 8.52579 22.7238 8.40375C22.8956 8.68854 23.0448 9.09355 23.0088 9.70625C22.9656 10.4395 22.7695 11.2382 22.6213 11.7125L22.525 12.0212L22.7163 12.2825C23.3495 13.146 23.6724 14.0806 23.6175 15.0687L23.6163 15.0862V15.1037C23.6163 16.7008 23.0412 17.9791 21.8163 18.9262C20.5914 19.8734 18.6577 20.48 15.9363 20.48C13.2148 20.48 11.2799 19.8734 10.055 18.9262C8.83014 17.9791 8.25628 16.7008 8.25628 15.1037C8.25628 14.1663 8.59479 13.1351 9.22003 12.2825L9.40753 12.0275L9.31753 11.7237C9.16922 11.2195 8.98744 10.4026 8.95128 9.665C8.92121 9.05148 9.06641 8.6637 9.21378 8.40375ZM5.68628 16.6537C6.13856 16.6595 6.65696 16.6839 7.17628 16.71C7.2259 16.9095 7.28248 17.1059 7.35128 17.2975C5.23457 17.3421 3.65106 17.555 2.67503 17.7375C2.63376 17.4173 2.60089 17.0944 2.58253 16.7675C3.30384 16.699 4.32067 16.6363 5.68628 16.6537ZM26.3138 16.6637C27.6784 16.6464 28.6949 16.7092 29.4163 16.7775C29.3979 17.0997 29.3656 17.418 29.325 17.7337C28.3141 17.5483 26.6878 17.3355 24.5163 17.3012C24.5837 17.1134 24.6398 16.9205 24.6888 16.725C25.2617 16.6943 25.8205 16.67 26.3138 16.6637ZM7.62378 17.9325C8.00569 18.6978 8.5514 19.3811 9.27253 19.9387C10.2585 20.7011 11.5403 21.2338 13.105 21.5187C12.9003 21.7291 12.7141 21.9601 12.5488 22.2037L12.51 22.17C12.5135 22.166 12.1919 22.327 11.7113 22.37C11.2307 22.413 10.6379 22.4 10.1125 22.4C9.32853 22.4 8.9832 22.0296 8.43128 21.355C8.12565 20.9431 7.75305 20.6095 7.39128 20.3562C7.02084 20.0969 6.70483 19.9139 6.31378 19.8487L6.26128 19.84H6.20753C5.90886 19.84 5.61986 19.8616 5.35003 20.17C5.21511 20.3242 5.12213 20.6096 5.18253 20.8512C5.24293 21.0929 5.39578 21.2413 5.53253 21.3325C6.40723 21.9156 6.56182 23.0698 7.11003 24.0962C7.62198 25.1164 8.72685 25.6 9.85628 25.6H11.52V28.6737C7.01943 27.0851 3.62542 23.171 2.77253 18.37C3.75231 18.1855 5.39301 17.9636 7.62378 17.9325ZM24.245 17.9375C26.5252 17.957 28.2119 18.1786 29.2288 18.3662C28.377 23.169 24.9818 27.0847 20.48 28.6737V25.3437C20.48 24.3296 20.147 23.2113 19.5675 22.2787C19.3916 21.9956 19.1846 21.7278 18.9538 21.4875C20.4355 21.1948 21.6527 20.6712 22.6 19.9387C23.3196 19.3823 23.8641 18.7011 24.245 17.9375ZM15.1675 21.8237H16.96C17.4802 21.8237 18.0355 22.2383 18.48 22.9537C18.9246 23.6692 19.2 24.6299 19.2 25.3437V29.055C18.1744 29.3051 17.1033 29.44 16 29.44C14.8968 29.44 13.8257 29.3051 12.8 29.055V25.3437C12.8 24.6457 13.0994 23.6872 13.5738 22.9687C14.0481 22.2503 14.6473 21.8237 15.1675 21.8237ZM7.87753 22.58C8.43162 23.1547 9.10245 23.68 10.1125 23.68C10.6112 23.68 11.2336 23.698 11.825 23.645C11.8271 23.6448 11.8292 23.6439 11.8313 23.6437C11.7534 23.8677 11.6952 24.0931 11.6463 24.32H9.85628C9.06695 24.32 8.50932 24.0348 8.25253 23.5212L8.24753 23.5125L8.24378 23.505C8.13856 23.3096 8.00044 22.9188 7.87753 22.58Z" fill="white"/>
</svg>
